<mxfile host="app.diagrams.net" modified="2023-05-07T03:42:56.977Z" agent="Mozilla/5.0 (Windows NT 10.0; Win64; x64) AppleWebKit/537.36 (KHTML, like Gecko) Chrome/112.0.0.0 Safari/537.36" etag="Vn2hhcsCbGH8eb6UaN0D" version="21.2.9" type="device">
  <diagram name="Page-1" id="60V9PFuTZyh3b-VaSPSZ">
    <mxGraphModel dx="2102" dy="544" grid="1" gridSize="10" guides="1" tooltips="1" connect="1" arrows="1" fold="1" page="1" pageScale="1" pageWidth="850" pageHeight="1100" math="0" shadow="0">
      <root>
        <mxCell id="0" />
        <mxCell id="1" parent="0" />
        <mxCell id="LHfgzKapLUF8ORozm3Rw-1" value="&lt;b&gt;&lt;font style=&quot;font-size: 18px;&quot;&gt;User&lt;/font&gt;&lt;/b&gt;" style="rounded=0;whiteSpace=wrap;html=1;" vertex="1" parent="1">
          <mxGeometry x="200" y="320" width="120" height="60" as="geometry" />
        </mxCell>
        <mxCell id="LHfgzKapLUF8ORozm3Rw-2" value="&lt;b&gt;&lt;font style=&quot;font-size: 18px;&quot;&gt;Contacts&lt;/font&gt;&lt;/b&gt;" style="rounded=0;whiteSpace=wrap;html=1;" vertex="1" parent="1">
          <mxGeometry x="670" y="320" width="120" height="60" as="geometry" />
        </mxCell>
        <mxCell id="LHfgzKapLUF8ORozm3Rw-3" value="Name" style="ellipse;whiteSpace=wrap;html=1;" vertex="1" parent="1">
          <mxGeometry x="40" y="130" width="120" height="60" as="geometry" />
        </mxCell>
        <mxCell id="LHfgzKapLUF8ORozm3Rw-4" value="&lt;u&gt;&lt;b&gt;Id&lt;/b&gt;&lt;/u&gt;" style="ellipse;whiteSpace=wrap;html=1;" vertex="1" parent="1">
          <mxGeometry x="200" y="130" width="120" height="60" as="geometry" />
        </mxCell>
        <mxCell id="LHfgzKapLUF8ORozm3Rw-5" value="Email" style="ellipse;whiteSpace=wrap;html=1;" vertex="1" parent="1">
          <mxGeometry x="-20" y="230" width="120" height="60" as="geometry" />
        </mxCell>
        <mxCell id="LHfgzKapLUF8ORozm3Rw-6" value="Password" style="ellipse;whiteSpace=wrap;html=1;" vertex="1" parent="1">
          <mxGeometry y="320" width="120" height="60" as="geometry" />
        </mxCell>
        <mxCell id="LHfgzKapLUF8ORozm3Rw-7" value="Image" style="ellipse;whiteSpace=wrap;html=1;" vertex="1" parent="1">
          <mxGeometry y="420" width="120" height="60" as="geometry" />
        </mxCell>
        <mxCell id="LHfgzKapLUF8ORozm3Rw-8" value="Role" style="ellipse;whiteSpace=wrap;html=1;" vertex="1" parent="1">
          <mxGeometry x="200" y="460" width="120" height="60" as="geometry" />
        </mxCell>
        <mxCell id="LHfgzKapLUF8ORozm3Rw-9" value="Active" style="ellipse;whiteSpace=wrap;html=1;" vertex="1" parent="1">
          <mxGeometry x="60" y="510" width="120" height="60" as="geometry" />
        </mxCell>
        <mxCell id="LHfgzKapLUF8ORozm3Rw-10" value="&lt;b&gt;Has&lt;/b&gt;" style="rhombus;whiteSpace=wrap;html=1;" vertex="1" parent="1">
          <mxGeometry x="460" y="310" width="80" height="80" as="geometry" />
        </mxCell>
        <mxCell id="LHfgzKapLUF8ORozm3Rw-11" value="" style="endArrow=none;html=1;rounded=0;entryX=0.5;entryY=1;entryDx=0;entryDy=0;" edge="1" parent="1" source="LHfgzKapLUF8ORozm3Rw-1" target="LHfgzKapLUF8ORozm3Rw-4">
          <mxGeometry width="50" height="50" relative="1" as="geometry">
            <mxPoint x="235" y="260" as="sourcePoint" />
            <mxPoint x="285" y="210" as="targetPoint" />
          </mxGeometry>
        </mxCell>
        <mxCell id="LHfgzKapLUF8ORozm3Rw-12" value="" style="endArrow=none;html=1;rounded=0;" edge="1" parent="1" source="LHfgzKapLUF8ORozm3Rw-8" target="LHfgzKapLUF8ORozm3Rw-1">
          <mxGeometry width="50" height="50" relative="1" as="geometry">
            <mxPoint x="230" y="430" as="sourcePoint" />
            <mxPoint x="260" y="380" as="targetPoint" />
          </mxGeometry>
        </mxCell>
        <mxCell id="LHfgzKapLUF8ORozm3Rw-13" value="" style="endArrow=none;html=1;rounded=0;" edge="1" parent="1" source="LHfgzKapLUF8ORozm3Rw-1" target="LHfgzKapLUF8ORozm3Rw-3">
          <mxGeometry width="50" height="50" relative="1" as="geometry">
            <mxPoint x="390" y="370" as="sourcePoint" />
            <mxPoint x="440" y="320" as="targetPoint" />
          </mxGeometry>
        </mxCell>
        <mxCell id="LHfgzKapLUF8ORozm3Rw-14" value="" style="endArrow=none;html=1;rounded=0;entryX=1;entryY=0.5;entryDx=0;entryDy=0;" edge="1" parent="1" source="LHfgzKapLUF8ORozm3Rw-1" target="LHfgzKapLUF8ORozm3Rw-5">
          <mxGeometry width="50" height="50" relative="1" as="geometry">
            <mxPoint x="245" y="330" as="sourcePoint" />
            <mxPoint x="133" y="198" as="targetPoint" />
          </mxGeometry>
        </mxCell>
        <mxCell id="LHfgzKapLUF8ORozm3Rw-15" value="" style="endArrow=none;html=1;rounded=0;" edge="1" parent="1" source="LHfgzKapLUF8ORozm3Rw-1" target="LHfgzKapLUF8ORozm3Rw-10">
          <mxGeometry width="50" height="50" relative="1" as="geometry">
            <mxPoint x="390" y="370" as="sourcePoint" />
            <mxPoint x="440" y="320" as="targetPoint" />
          </mxGeometry>
        </mxCell>
        <mxCell id="LHfgzKapLUF8ORozm3Rw-16" value="" style="endArrow=none;html=1;rounded=0;" edge="1" parent="1" source="LHfgzKapLUF8ORozm3Rw-10" target="LHfgzKapLUF8ORozm3Rw-2">
          <mxGeometry width="50" height="50" relative="1" as="geometry">
            <mxPoint x="330" y="360" as="sourcePoint" />
            <mxPoint x="470" y="360" as="targetPoint" />
          </mxGeometry>
        </mxCell>
        <mxCell id="LHfgzKapLUF8ORozm3Rw-17" value="" style="endArrow=none;html=1;rounded=0;" edge="1" parent="1" source="LHfgzKapLUF8ORozm3Rw-9" target="LHfgzKapLUF8ORozm3Rw-1">
          <mxGeometry width="50" height="50" relative="1" as="geometry">
            <mxPoint x="140" y="510" as="sourcePoint" />
            <mxPoint x="190" y="460" as="targetPoint" />
          </mxGeometry>
        </mxCell>
        <mxCell id="LHfgzKapLUF8ORozm3Rw-18" value="" style="endArrow=none;html=1;rounded=0;" edge="1" parent="1" source="LHfgzKapLUF8ORozm3Rw-7" target="LHfgzKapLUF8ORozm3Rw-1">
          <mxGeometry width="50" height="50" relative="1" as="geometry">
            <mxPoint x="390" y="370" as="sourcePoint" />
            <mxPoint x="440" y="320" as="targetPoint" />
          </mxGeometry>
        </mxCell>
        <mxCell id="LHfgzKapLUF8ORozm3Rw-19" value="" style="endArrow=none;html=1;rounded=0;" edge="1" parent="1" source="LHfgzKapLUF8ORozm3Rw-6" target="LHfgzKapLUF8ORozm3Rw-1">
          <mxGeometry width="50" height="50" relative="1" as="geometry">
            <mxPoint x="390" y="370" as="sourcePoint" />
            <mxPoint x="440" y="320" as="targetPoint" />
          </mxGeometry>
        </mxCell>
        <mxCell id="LHfgzKapLUF8ORozm3Rw-20" value="&lt;u&gt;&lt;b&gt;C_id&lt;/b&gt;&lt;/u&gt;" style="ellipse;whiteSpace=wrap;html=1;" vertex="1" parent="1">
          <mxGeometry x="520" y="230" width="120" height="60" as="geometry" />
        </mxCell>
        <mxCell id="LHfgzKapLUF8ORozm3Rw-22" value="Name" style="ellipse;whiteSpace=wrap;html=1;" vertex="1" parent="1">
          <mxGeometry x="600" y="130" width="120" height="60" as="geometry" />
        </mxCell>
        <mxCell id="LHfgzKapLUF8ORozm3Rw-23" value="Nickname" style="ellipse;whiteSpace=wrap;html=1;" vertex="1" parent="1">
          <mxGeometry x="740" y="130" width="120" height="60" as="geometry" />
        </mxCell>
        <mxCell id="LHfgzKapLUF8ORozm3Rw-24" value="Email" style="ellipse;whiteSpace=wrap;html=1;" vertex="1" parent="1">
          <mxGeometry x="910" y="280" width="120" height="60" as="geometry" />
        </mxCell>
        <mxCell id="LHfgzKapLUF8ORozm3Rw-25" value="&lt;u&gt;About&lt;/u&gt;" style="ellipse;whiteSpace=wrap;html=1;" vertex="1" parent="1">
          <mxGeometry x="900" y="370" width="120" height="60" as="geometry" />
        </mxCell>
        <mxCell id="LHfgzKapLUF8ORozm3Rw-26" value="Image" style="ellipse;whiteSpace=wrap;html=1;" vertex="1" parent="1">
          <mxGeometry x="790" y="440" width="120" height="60" as="geometry" />
        </mxCell>
        <mxCell id="LHfgzKapLUF8ORozm3Rw-27" value="Work" style="ellipse;whiteSpace=wrap;html=1;" vertex="1" parent="1">
          <mxGeometry x="630" y="470" width="120" height="60" as="geometry" />
        </mxCell>
        <mxCell id="LHfgzKapLUF8ORozm3Rw-28" value="Contact_number" style="ellipse;whiteSpace=wrap;html=1;" vertex="1" parent="1">
          <mxGeometry x="880" y="170" width="120" height="60" as="geometry" />
        </mxCell>
        <mxCell id="LHfgzKapLUF8ORozm3Rw-29" value="" style="endArrow=none;html=1;rounded=0;" edge="1" parent="1" source="LHfgzKapLUF8ORozm3Rw-2" target="LHfgzKapLUF8ORozm3Rw-20">
          <mxGeometry width="50" height="50" relative="1" as="geometry">
            <mxPoint x="560" y="360" as="sourcePoint" />
            <mxPoint x="610" y="310" as="targetPoint" />
          </mxGeometry>
        </mxCell>
        <mxCell id="LHfgzKapLUF8ORozm3Rw-30" value="" style="endArrow=none;html=1;rounded=0;" edge="1" parent="1" source="LHfgzKapLUF8ORozm3Rw-2" target="LHfgzKapLUF8ORozm3Rw-22">
          <mxGeometry width="50" height="50" relative="1" as="geometry">
            <mxPoint x="560" y="360" as="sourcePoint" />
            <mxPoint x="610" y="310" as="targetPoint" />
          </mxGeometry>
        </mxCell>
        <mxCell id="LHfgzKapLUF8ORozm3Rw-31" value="" style="endArrow=none;html=1;rounded=0;" edge="1" parent="1" source="LHfgzKapLUF8ORozm3Rw-2" target="LHfgzKapLUF8ORozm3Rw-23">
          <mxGeometry width="50" height="50" relative="1" as="geometry">
            <mxPoint x="729" y="330" as="sourcePoint" />
            <mxPoint x="681" y="200" as="targetPoint" />
          </mxGeometry>
        </mxCell>
        <mxCell id="LHfgzKapLUF8ORozm3Rw-32" value="" style="endArrow=none;html=1;rounded=0;" edge="1" parent="1" source="LHfgzKapLUF8ORozm3Rw-2" target="LHfgzKapLUF8ORozm3Rw-28">
          <mxGeometry width="50" height="50" relative="1" as="geometry">
            <mxPoint x="751" y="330" as="sourcePoint" />
            <mxPoint x="799" y="200" as="targetPoint" />
          </mxGeometry>
        </mxCell>
        <mxCell id="LHfgzKapLUF8ORozm3Rw-33" value="" style="endArrow=none;html=1;rounded=0;" edge="1" parent="1" source="LHfgzKapLUF8ORozm3Rw-2" target="LHfgzKapLUF8ORozm3Rw-24">
          <mxGeometry width="50" height="50" relative="1" as="geometry">
            <mxPoint x="782" y="330" as="sourcePoint" />
            <mxPoint x="916" y="235" as="targetPoint" />
          </mxGeometry>
        </mxCell>
        <mxCell id="LHfgzKapLUF8ORozm3Rw-34" value="" style="endArrow=none;html=1;rounded=0;exitX=1;exitY=0.75;exitDx=0;exitDy=0;" edge="1" parent="1" source="LHfgzKapLUF8ORozm3Rw-2" target="LHfgzKapLUF8ORozm3Rw-25">
          <mxGeometry width="50" height="50" relative="1" as="geometry">
            <mxPoint x="800" y="350" as="sourcePoint" />
            <mxPoint x="923" y="329" as="targetPoint" />
          </mxGeometry>
        </mxCell>
        <mxCell id="LHfgzKapLUF8ORozm3Rw-35" value="" style="endArrow=none;html=1;rounded=0;" edge="1" parent="1" source="LHfgzKapLUF8ORozm3Rw-2" target="LHfgzKapLUF8ORozm3Rw-26">
          <mxGeometry width="50" height="50" relative="1" as="geometry">
            <mxPoint x="800" y="375" as="sourcePoint" />
            <mxPoint x="915" y="399" as="targetPoint" />
          </mxGeometry>
        </mxCell>
        <mxCell id="LHfgzKapLUF8ORozm3Rw-36" value="" style="endArrow=none;html=1;rounded=0;" edge="1" parent="1" source="LHfgzKapLUF8ORozm3Rw-2" target="LHfgzKapLUF8ORozm3Rw-27">
          <mxGeometry width="50" height="50" relative="1" as="geometry">
            <mxPoint x="770" y="390" as="sourcePoint" />
            <mxPoint x="833" y="453" as="targetPoint" />
          </mxGeometry>
        </mxCell>
      </root>
    </mxGraphModel>
  </diagram>
</mxfile>
